<svg width="50" height="50" viewBox="0 0 50 50" fill="none" xmlns="http://www.w3.org/2000/svg">
<path d="M3.26258 11.7375C2.57922 11.0539 2.57914 9.94604 3.26235 9.26234C3.26241 9.26227 3.26247 9.26221 3.26253 9.26215C3.26256 9.26213 3.26258 9.2621 3.2626 9.26208C3.94615 8.57924 5.05419 8.57927 5.73785 9.26238L20.7352 24.2644L20.7353 24.2645C21.419 24.9482 21.419 26.0514 20.7353 26.7351L20.7353 26.7351L5.73764 41.7351C5.05395 42.4188 3.94604 42.4187 3.26256 41.7351C2.57913 41.0514 2.57915 39.9481 3.2626 39.2644L3.26263 39.2644L16.4914 26.03L17.0214 25.4997L16.4913 24.9695L3.2626 11.7375C3.2626 11.7375 3.26259 11.7375 3.26258 11.7375ZM44.5 38.7498C45.4686 38.7498 46.25 39.5312 46.25 40.4998C46.25 41.4684 45.4686 42.2498 44.5 42.2498H22C21.0314 42.2498 20.25 41.4684 20.25 40.4998C20.25 39.5312 21.0314 38.7498 22 38.7498H44.5Z" stroke="#3294F8" stroke-width="1.5"/>
</svg>
